<?xml version="1.0" encoding="utf-8"?>
<!-- Svg Vector Icons : http://www.onlinewebfonts.com/icon -->
<!DOCTYPE svg PUBLIC "-//W3C//DTD SVG 1.1//EN" "http://www.w3.org/Graphics/SVG/1.1/DTD/svg11.dtd">
<svg version="1.1" xmlns="http://www.w3.org/2000/svg" xmlns:xlink="http://www.w3.org/1999/xlink" x="0px" y="0px" viewBox="0 0 1000 1000" enable-background="new 0 0 1000 1000" xml:space="preserve">
<metadata> Svg Vector Icons : http://www.onlinewebfonts.com/icon </metadata>
<g><g transform="translate(0.000000,511.000000) scale(0.100000,-0.100000)"><path d="M253.2,4698.3c-124.7-49.9-149.6-206.6-149.6-951.1c0-776.6,17.8-876.3,167.4-944c60.6-28.5,723.1-39.2,2183.7-39.2h2098.2l99.8,85.5l99.7,85.5l10.7,708.9c14.3,780.1,0,908.4-103.3,1011.7c-64.1,64.1-135.4,67.7-2212.2,64.1C1264.9,4719.7,278.1,4709,253.2,4698.3z M4538.7,3743.6v-748.1H2436.9H335.1l-10.7,758.8l-7.1,755.2l2108.9-7.1l2112.5-10.7V3743.6z"/><path d="M5358,4634.2l-89.1-85.5v-805.1v-805.1l89.1-85.5l85.5-89.1h2133.9c2105.3,0,2137.4,0,2230,74.8l92.6,71.3v830c0,819.3,0,830-81.9,904.8l-82,78.4H7588H5443.5L5358,4634.2z M9704.1,3743.6v-748.1l-2108.9-10.7l-2112.5-7.1v765.9v765.9l2112.5-7.1l2108.9-10.7V3743.6z"/><path d="M292.4,2265.2c-181.7-74.8-192.4-146.1-181.7-990.3c10.7-712.5,17.8-790.8,78.4-858.5c64.1-71.3,99.8-74.8,965.4-74.8s901.3,3.6,965.4,74.8c64.1,67.7,67.7,138.9,67.7,890.6c0,1072.3,99.7,972.5-990.3,983.2C744.8,2293.7,335.1,2283,292.4,2265.2z M1973.8,1303.4V537.5h-819.3H335.1l-10.7,730.3c-3.6,399,0,748.1,10.7,773c10.7,39.2,188.8,46.3,826.5,39.2l812.2-10.7V1303.4z"/><path d="M2860.8,2251c-60.6-28.5-121.1-74.8-135.4-110.4c-10.7-32.1-21.4-420.4-21.4-858.5c0-751.7,3.6-801.5,71.3-869.2c71.2-71.2,117.5-71.2,2240.7-71.2h2173l71.3,92.6c71.3,89.1,74.8,138.9,74.8,883.5c-3.6,847.8-7.1,876.3-192.4,947.6C6986,2325.8,2999.7,2311.5,2860.8,2251z M7103.6,1303.4V537.5L5041,526.8c-1492.6-3.6-2076.9,3.5-2108.9,32.1c-39.2,32.1-49.9,192.4-49.9,726.7c0,381.2,10.7,716,21.4,744.5c21.4,53.4,228,57,2112.5,49.9l2087.5-10.7V1303.4z"/><path d="M8026.2,2265.2c-178.1-71.2-192.4-138.9-192.4-965.4c0-726.7,3.5-776.6,74.8-865.6l71.3-92.6h890.6c840.8,0,890.6,3.6,958.3,71.2c67.7,67.7,71.3,117.6,71.3,901.3c0,801.5-3.5,837.2-74.8,901.3c-67.7,60.5-146,67.7-901.3,74.8C8471.5,2293.7,8065.4,2283,8026.2,2265.2z M9704.1,1303.4V537.5h-819.3h-819.3l-10.6,730.3c-3.6,399,0,748.1,10.6,773c10.7,39.2,188.8,46.3,826.5,39.2l812.2-10.7V1303.4z"/><path d="M206.9-189.2c-85.5-67.7-85.5-74.8-96.2-872.8L100-1867.1L206.9-1974l106.9-106.9l2137.4,7.1l2137.4,10.7l81.9,81.9c81.9,78.4,81.9,96.2,81.9,901.3c0,819.3,0,822.9-85.5,890.6c-78.4,64.1-167.4,67.7-2230,67.7C377.9-121.5,285.2-125.1,206.9-189.2z M4538.7-1083.4v-765.9H2436.9H335.1L324.4-1119c-3.6,399,0,748.1,10.7,773c10.7,39.2,431,46.3,2108.9,39.2l2094.7-10.7V-1083.4z"/><path d="M5343.8-214.2c-71.2-89.1-74.8-138.9-74.8-855c0-815.8,17.8-908.4,174.6-976.1c64.2-24.9,737.4-35.6,2201.6-28.5c2012.7,10.7,2108.9,14.2,2180.1,78.4c71.3,64.1,74.8,99.7,74.8,901.3c0,783.7-3.5,833.6-71.3,901.3c-71.2,71.3-117.5,71.3-2240.7,71.3H5415L5343.8-214.2z M9682.7-349.6c28.5-32,39.2-267.2,32.1-773l-10.7-726.7H7602.3H5500.5l-10.6,730.3c-3.6,399,0,748.1,7.1,773C5525.5-274.7,9625.7-278.3,9682.7-349.6z"/><path d="M256.7-2586.7c-138.9-67.7-156.7-185.3-146-1004.6c10.7-765.9,10.7-776.6,96.2-844.2c74.8-64.2,149.6-67.7,951.2-67.7c812.2,0,872.8,3.6,936.9,67.7c103.3,103.3,117.6,231.5,103.3,1011.7l-10.7,708.9l-99.7,85.5c-99.8,85.5-103.3,85.5-926.2,82C659.3-2547.5,303.1-2565.3,256.7-2586.7z M1984.5-3520c7.1-573.5-3.5-751.6-35.6-776.6c-53.4-32.1-1489.1-39.2-1574.5-7.1c-49.9,17.8-57,121.1-57,758.8c0,406.1,10.7,751.6,24.9,765.9c14.2,10.7,384.7,17.8,826.5,14.2l805.1-10.7L1984.5-3520z"/><path d="M2793.1-2629.5l-89.1-89.1v-815.8c0-805.1,0-815.8,81.9-890.6l81.9-78.4H5016h2144.5l85.5,89.1l89.1,85.5v797.9c0,733.9-7.1,808.7-67.7,883.5l-67.6,85.5L5041-2551.1l-2158.8,7.1L2793.1-2629.5z M7114.3-3530.7l-10.7-776.6L5041-4318c-1492.6-3.6-2076.9,3.6-2108.9,32.1c-39.2,32.1-49.9,192.4-49.9,726.7c0,381.2,10.7,712.5,21.4,744.6c21.4,49.8,238.7,57,2119.6,57h2098.2L7114.3-3530.7z"/><path d="M7990.6-2586.7c-138.9-64.1-156.8-174.5-156.8-976.1c0-765.9,0-765.9,89.1-851.4l85.5-89.1h876.3c826.5,0,876.3,3.6,944,71.3c67.7,67.7,71.3,117.6,71.3,904.9v837.1l-92.6,71.3c-89.1,71.2-138.9,74.8-919.1,71.2C8400.3-2547.5,8033.3-2565.3,7990.6-2586.7z M9714.8-3502.2c7.1-505.8-3.5-741-32.1-773c-32.1-39.2-195.9-49.9-780.2-49.9c-409.7,0-765.9,10.7-798,21.4c-49.8,17.8-57,121.1-57,758.8c0,406.1,10.7,751.6,25,765.9c14.2,10.7,384.7,17.8,826.4,14.2l805.1-10.7L9714.8-3502.2z"/></g></g>
</svg>