<?xml version="1.0" encoding="utf-8"?>
<!-- Generator: Adobe Illustrator 18.0.0, SVG Export Plug-In . SVG Version: 6.00 Build 0)  -->
<!DOCTYPE svg PUBLIC "-//W3C//DTD SVG 1.1//EN" "http://www.w3.org/Graphics/SVG/1.1/DTD/svg11.dtd">
<svg version="1.1" id="Layer_1" xmlns="http://www.w3.org/2000/svg" xmlns:xlink="http://www.w3.org/1999/xlink" x="0px" y="0px"
	 viewBox="100.5 0 595.3 595.3" enable-background="new 100.5 0 595.3 595.3" xml:space="preserve">
<g>
	<polygon fill="#BE1E2D" points="52823.1,-5357.5 52225.3,-5357.5 52225.3,-5215 52257.8,-5215 52257.8,-5325 52790.6,-5325 
		52790.6,-5215 52823.1,-5215 	"/>
	<polygon fill="#BE1E2D" points="52790.6,-4789.8 52257.8,-4789.8 52257.8,-4899.8 52225.3,-4899.8 52225.3,-4757.2 
		52823.1,-4757.2 52823.1,-4899.8 52790.6,-4899.8 	"/>
</g>
<g>
	<g>
		<polygon points="695.8,0 100.5,0 100.5,140.1 133,140.1 133,32.5 663.2,32.5 663.2,140.1 695.8,140.1 		"/>
		<polygon points="663.2,562.8 133,562.8 133,452.7 100.5,452.7 100.5,595.3 695.8,595.3 695.8,452.7 663.2,452.7 		"/>
	</g>
</g>
<g>
	<g>
		<g>
			<rect x="278.1" y="280.1" transform="matrix(-0.7071 -0.7071 0.7071 -0.7071 470.0401 787.4759)" width="240.1" height="32.5"/>
		</g>
	</g>
	<g>
		<g>
			<rect x="278.1" y="280.1" transform="matrix(0.7071 -0.7071 0.7071 0.7071 -92.9748 368.3179)" width="240.1" height="32.5"/>
		</g>
	</g>
</g>
</svg>
