<?xml version="1.0" encoding="utf-8"?>
<!-- Generator: Adobe Illustrator 18.0.0, SVG Export Plug-In . SVG Version: 6.00 Build 0)  -->
<!DOCTYPE svg PUBLIC "-//W3C//DTD SVG 1.1//EN" "http://www.w3.org/Graphics/SVG/1.1/DTD/svg11.dtd">
<svg version="1.1" id="Layer_1" xmlns="http://www.w3.org/2000/svg" xmlns:xlink="http://www.w3.org/1999/xlink" x="0px" y="0px"
	 viewBox="0 0 234.5 201.7" width="40px" height="40px" enable-background="new 0 0 234.5 201.7" xml:space="preserve">
<g>
	<path fill="#E12D34" d="M187.6,106v18.4h3.7v16.3l-2.3,2.3l-6.6,9.1h-4.5l-8.3-4.9v-5.7h-5v-16.8h4.5V106H65.8
		c0.1,2.3,0.4,16.6,0.4,18.6c0,2.1,1.4,1.4,2.6,3.1s-0.3,12.6-0.3,12.6l-3.1,2.9c0,0-1.9,1.6-3.3,5.4s-6.6,3.6-6.6,3.6
		s-3.9-1.3-7.4-3.6s-2.3-7.5-2.3-7.5h-4.8v-16.9h4.8V106H26.3v72.1h182V106H187.6z"/>
</g>
<g>
	<circle cx="55.6" cy="92.8" r="2.3"/>
	<circle cx="55.6" cy="100" r="2.3"/>
	<circle cx="55.6" cy="107.2" r="2.3"/>
	<circle cx="55.6" cy="114.4" r="2.3"/>
	<circle cx="178.9" cy="92.8" r="2.3"/>
	<circle cx="178.9" cy="100" r="2.3"/>
	<circle cx="178.9" cy="107.2" r="2.3"/>
	<circle cx="178.9" cy="114.4" r="2.3"/>
	<path d="M233.5,41.7c-0.7-0.7-1.6-1-2.5-1h-71.4l0-6.4c0-18.9-15.3-34.2-34.2-34.3l-16.3,0C90.3,0,74.9,15.3,74.9,34.2l0,6.4H3.5
		c-2,0-3.5,1.6-3.5,3.5v154c0,2,1.6,3.5,3.5,3.5H231c2,0,3.5-1.6,3.5-3.5v-154C234.5,43.2,234.1,42.3,233.5,41.7z M178.9,74.6
		c-7.3,0-13.2,5.9-13.2,13.2v12.1h-97V87.8c0-7.3-5.9-13.2-13.2-13.2c-7.3,0-13.2,5.9-13.2,13.2v12.1H7.1V47.7l136.6,0
		c0.1,0,0.2,0,0.3,0l12,0c0.2,0,0.3,0,0.5,0h70.9v52.2h-35.3V87.8C192.1,80.5,186.2,74.6,178.9,74.6z M45.3,138.4v-10.6h19.8v10.6
		H45.3z M169,138.4v-10.6h19.8v10.6H169z M55.6,148.6c-2.2,0-4.3-1.2-5.3-3.2h10.7C59.9,147.4,57.8,148.6,55.6,148.6z M178.9,148.6
		c-2.2,0-4.3-1.2-5.3-3.2h10.7C183.2,147.4,181.2,148.6,178.9,148.6z M185,120.7h-12.2v-33c0-3.4,2.7-6.1,6.1-6.1
		c3.4,0,6.1,2.7,6.1,6.1V120.7z M55.6,81.7c3.4,0,6.1,2.7,6.1,6.1v33H49.5l0-33C49.5,84.4,52.2,81.7,55.6,81.7z M7.1,107l35.3,0
		v13.8h-0.7c-2,0-3.5,1.6-3.5,3.5v17.6c0,2,1.6,3.5,3.5,3.5h1c1.4,6,6.6,10.2,12.8,10.2s11.5-4.3,12.8-10.2h0.2c2,0,3.5-1.6,3.5-3.5
		v-17.6c0-1.9-1.5-3.5-3.4-3.5V107h97v13.8h-0.3c-2,0-3.5,1.6-3.5,3.5v17.6c0,2,1.6,3.5,3.5,3.5h0.6c1.4,6,6.6,10.2,12.8,10.2
		c6.2,0,11.5-4.3,12.8-10.2h0.6c2,0,3.5-1.6,3.5-3.5v-17.6c0-2-1.6-3.5-3.5-3.5h-0.3V107l35.3,0v87.7H7.1V107z M152.5,40.6h-5l0-6.4
		c0-5.9-2.3-11.5-6.5-15.7c-4.2-4.2-9.8-6.5-15.7-6.5l-16.3,0C96.9,12,86.9,22,86.9,34.2l0,6.4l-5,0l0-6.4c0-15,12.2-27.1,27.2-27.1
		l16.2,0c15,0,27.1,12.2,27.1,27.2L152.5,40.6z M94,34.2c0-8.3,6.8-15.1,15.1-15.1l16.2,0c4,0,7.8,1.6,10.7,4.4
		c2.9,2.9,4.4,6.7,4.4,10.7l0,6.4H94L94,34.2z"/>
</g>
</svg>
