<?xml version="1.0" encoding="utf-8"?>
<!-- Generator: Adobe Illustrator 18.0.0, SVG Export Plug-In . SVG Version: 6.00 Build 0)  -->
<!DOCTYPE svg PUBLIC "-//W3C//DTD SVG 1.1//EN" "http://www.w3.org/Graphics/SVG/1.1/DTD/svg11.dtd">
<svg version="1.1" id="Layer_1" xmlns="http://www.w3.org/2000/svg" xmlns:xlink="http://www.w3.org/1999/xlink" x="0px" y="0px"
	 viewBox="0 0 149.7 200"  width="40px" height="40px" enable-background="new 0 0 149.7 200" xml:space="preserve">
<circle fill="#E12D34" cx="74.6" cy="125.2" r="44.9"/>
<g>
	<g>
		<path d="M75.3,57.3c-16.9,0-30.7-12.8-30.7-28.6C44.6,12.8,58.4,0,75.3,0S106,12.8,106,28.6C106,44.4,92.2,57.3,75.3,57.3z
			 M75.3,5.8C61.5,5.8,50.4,16,50.4,28.6c0,12.6,11.2,22.9,24.9,22.9s24.9-10.3,24.9-22.9C100.3,16,89.1,5.8,75.3,5.8z"/>
	</g>
	<path d="M74.8,200C33.6,200,0,166.4,0,125.2c0-41.3,33.6-74.8,74.8-74.8s74.8,33.6,74.8,74.8C149.7,166.4,116.1,200,74.8,200z
		 M74.8,59C38.3,59,8.6,88.7,8.6,125.2c0,36.5,29.7,66.2,66.2,66.2s66.2-29.7,66.2-66.2C141,88.7,111.3,59,74.8,59z"/>
	<g>
		<path d="M82.9,126.1c0.5,5.2-2.8,11-8.1,11h-0.5c-5.2,0-8.5-5.8-8.1-11c1-11.6,5.1-35,6.7-45.1c0.3-2.1,3-1.3,3.2,0.4
			C78,93.2,81.9,114.6,82.9,126.1z"/>
	</g>
	<g>
		<g>
			<rect x="72.1" y="65.1" width="6" height="10"/>
		</g>
		<g>
			<rect x="32.9" y="80.8" transform="matrix(0.707 -0.7072 0.7072 0.707 -50.2383 50.4281)" width="5.8" height="10.1"/>
		</g>
		<g>
			<rect x="14.1" y="123.1" width="11" height="6"/>
		</g>
		<g>
			<rect x="32.9" y="159.2" transform="matrix(-0.7072 -0.707 0.707 -0.7072 -55.0866 305.62)" width="5.8" height="10.1"/>
		</g>
		<g>
			<rect x="72.1" y="176.1" width="6" height="10"/>
		</g>
		<g>
			<rect x="111.2" y="159.2" transform="matrix(-0.7071 0.7071 -0.7071 -0.7071 310.9159 199.6482)" width="5.8" height="10.1"/>
		</g>
		<g>
			<rect x="125.1" y="123.1" width="10" height="6"/>
		</g>
		<g>
			<rect x="111.2" y="80.8" transform="matrix(0.7069 0.7073 -0.7073 0.7069 94.1584 -55.5482)" width="5.8" height="10.1"/>
		</g>
	</g>
	<g>
		<path d="M23.3,58.9c-1.8-1.8-4.6-2-6.4-0.1l-8,8c-1.8,1.8-1.7,4.6,0.1,6.4c1.6,1.6,4,1.7,6.1,0.3l4.6,4.6l8.5-8.5L23.6,65
			C25,63,24.9,60.5,23.3,58.9z"/>
	</g>
	<g>
		<g>
			<rect x="66.1" y="34.1" width="19" height="24"/>
		</g>
		<g>
			<path d="M92.1,36.3c0,0.8-0.6,1.8-1.4,1.8H60.6c-0.8,0-1.5-1-1.5-1.8V20.2c0-0.8,0.7-1.1,1.5-1.1h30.1c0.8,0,1.4,0.3,1.4,1.1
				V36.3z"/>
		</g>
	</g>
</g>
</svg>
