<?xml version="1.0" encoding="utf-8"?>
<!-- Generator: Adobe Illustrator 18.0.0, SVG Export Plug-In . SVG Version: 6.00 Build 0)  -->
<!DOCTYPE svg PUBLIC "-//W3C//DTD SVG 1.1//EN" "http://www.w3.org/Graphics/SVG/1.1/DTD/svg11.dtd">
<svg version="1.1" id="Layer_1" xmlns="http://www.w3.org/2000/svg" xmlns:xlink="http://www.w3.org/1999/xlink" x="0px" y="0px"
	 viewBox="0 0 177.7 197.7" width="40px" height="40px" enable-background="new 0 0 177.7 197.7" xml:space="preserve">
<g>
	<g>
		<path id="path4248" fill="#E12D34" d="M81.1,0c-2.8,0-4.5,2.2-3.9,4.9l2.9,12.8c0.6,2.7,3.4,4.9,6.1,4.9h5c2.8,0,5.5-2.2,6.1-4.9
			l2.8-12.8c0.6-2.7-1.2-4.9-4-4.9H81.1"/>
		<path id="path4250" fill="#E12D34" d="M68.4,83.6L85.7,98c2.1,1.8,5.5,1.7,7.6-0.2L109,83.7c2.1-1.9,3.1-5.5,2.3-8.2L98,32.5
			c-0.8-2.7-3.7-4.8-6.5-4.8h-5.4c-2.8,0-5.7,2.1-6.5,4.8L66,75.5C65.2,78.2,66.2,81.8,68.4,83.6"/>
	</g>
</g>
<g>
	<path d="M176.3,117c0,0-4-3.4-8-10.3c-3.6-6.4-7.9-17.3-7.9-32.7c0-30.9,5.8-52.5,5.8-52.7c0.5-1.7-0.4-3.5-2-4.3L129.6,0.4
		c-0.9-0.4-2-0.5-3-0.1c-1,0.4-1.7,1.2-2.1,2.2c-0.1,0.2-6.1,16.9-13.9,33.4C96.1,66.5,89.4,67.4,88.7,67.4c0,0-0.1,0-0.1,0
		c-1.9-0.3-8.9-3.7-21.9-31.5C59.1,19.4,53.2,2.7,53.1,2.5c-0.3-1-1.1-1.8-2.1-2.2c-1-0.4-2.1-0.4-3,0.1L13.4,16.9
		c-1.6,0.8-2.4,2.6-2,4.3c0.1,0.2,5.8,21.7,5.8,52.7c0,15.4-4.3,26.3-7.9,32.7c-3.9,7-7.9,10.3-8,10.3c-0.9,0.7-1.4,1.7-1.4,2.9
		v74.2c0,2,1.7,3.7,3.7,3.7l170.3,0c2,0,3.7-1.7,3.7-3.7v-74.2C177.7,118.7,177.2,117.7,176.3,117z M170.3,121.4v25.8h-47.1
		l31.2-126.8l3.9,1.9c-1.6,7.1-5.4,26.1-5.4,51.6C153,102.2,166,117.2,170.3,121.4z M117.3,39c5.7-12.1,10.5-24.2,12.8-30.2l1.9,0.9
		L98,147.2h-5.4V73.9C97.9,71.7,105.6,63.8,117.3,39z M60,39c11.7,25.1,19.6,32.9,25,35v73.2h-5.4L45.8,9.7l1.8-0.9
		C49.8,14.8,54.4,27,60,39z M24.6,73.9c0-25.5-3.7-44.5-5.4-51.6l3.9-1.9l31.2,126.8H7.4v-25.8C11.7,117.3,24.6,102.2,24.6,73.9z
		 M7.4,180.1H85v10.3H7.4V180.1z M92.7,190.3V180h77.6v10.3H92.7z"/>
</g>
</svg>
