<?xml version="1.0" encoding="utf-8"?>
<!-- Generator: Adobe Illustrator 18.0.0, SVG Export Plug-In . SVG Version: 6.00 Build 0)  -->
<!DOCTYPE svg PUBLIC "-//W3C//DTD SVG 1.1//EN" "http://www.w3.org/Graphics/SVG/1.1/DTD/svg11.dtd">
<svg version="1.1" id="Layer_1" xmlns="http://www.w3.org/2000/svg" xmlns:xlink="http://www.w3.org/1999/xlink" x="0px" y="0px"
	 viewBox="0 0 59.3 65.6" width="100px" height="50px" enable-background="new 0 0 59.3 65.6" xml:space="preserve">
<g>
	<g>
		<g>
			<path d="M59.3,49.5H55c0-14-11.4-25.4-25.4-25.4S4.3,35.5,4.3,49.5H0c0-16.4,13.3-29.7,29.7-29.7S59.3,33.1,59.3,49.5z"/>
		</g>
		<path fill="#E02C34" d="M40.3,52.7c0.1-1.3,0-2.2,0-2.2H18.2c0,0-0.1,0.9,0,2.2h-1.4c0,7.1,5.8,12.8,12.8,12.8s12.8-5.8,12.8-12.8
			H40.3z"/>
		<g>
			<rect x="0.1" y="49.1" width="59.2" height="4.3"/>
		</g>
		<g>
			<rect x="27.5" y="1.1" width="4.3" height="21.4"/>
		</g>
		<g>
			<rect x="19.6" y="0" width="20.1" height="4.3"/>
		</g>
	</g>
</g>
</svg>
