<?xml version="1.0" encoding="utf-8"?>
<!-- Generator: Adobe Illustrator 18.0.0, SVG Export Plug-In . SVG Version: 6.00 Build 0)  -->
<!DOCTYPE svg PUBLIC "-//W3C//DTD SVG 1.1//EN" "http://www.w3.org/Graphics/SVG/1.1/DTD/svg11.dtd">
<svg version="1.1" id="Layer_1" xmlns="http://www.w3.org/2000/svg" xmlns:xlink="http://www.w3.org/1999/xlink" x="0px" y="0px"
	 viewBox="0 0 74 71.3" width="100px" height="50px" enable-background="new 0 0 74 71.3" xml:space="preserve">
<g>
	<g>
		<path d="M74,71.3H33.9V0H74V71.3z M38.5,66.6h30.8v-62H38.5V66.6z"/>
	</g>
	<g>
		<path d="M67.1,42.7l-3-0.9c-6.6-2-13.8-2-20.4,0l-3,0.9V9.9l1.6-0.5c7.5-2.3,15.6-2.3,23.1,0l1.6,0.5V42.7z M45.4,13.4v23.2
			c5.6-1.3,11.5-1.3,17.1,0V13.4C56.9,12,51,12,45.4,13.4z"/>
	</g>
	<g>
		<path d="M67.1,63.5H40.7V45.3l1.5-0.6c3.8-1.4,7.7-2,11.7-2c4,0,7.9,0.7,11.7,2l1.5,0.6V63.5z M45.4,58.9h17.1V48.6
			c-5.6-1.7-11.6-1.7-17.1,0V58.9z"/>
	</g>
</g>
<path fill="#E02C34" d="M27.6,9.2c-8.4-2.6-17.6-2.6-26,0L0,9.7v36.7h29.3V9.7L27.6,9.2z M24.6,27.7c-0.4-1-0.8-2.1-1.1-3.4
	c-1.2-4.6-0.9-9.8-0.8-11.5c0.6,0.1,1.2,0.3,1.9,0.4V27.7z M6.6,12.8c0.1,1.7,0.4,6.9-0.8,11.5c-0.3,1.3-0.7,2.5-1.2,3.6V13.2
	C5.3,13,5.9,12.9,6.6,12.8z"/>
</svg>
