<?xml version="1.0" encoding="utf-8"?>
<!-- Generator: Adobe Illustrator 18.0.0, SVG Export Plug-In . SVG Version: 6.00 Build 0)  -->
<!DOCTYPE svg PUBLIC "-//W3C//DTD SVG 1.1//EN" "http://www.w3.org/Graphics/SVG/1.1/DTD/svg11.dtd">
<svg version="1.1" id="Layer_1" xmlns="http://www.w3.org/2000/svg" xmlns:xlink="http://www.w3.org/1999/xlink" x="0px" y="0px"
	 viewBox="0 0 102.2 60.1" width="100px" height="50px" enable-background="new 0 0 102.2 60.1" xml:space="preserve">
<path fill="#E02C34" d="M43.2,9.6l1-0.9c-3.3-3.4-8.7-3.5-12.1-0.3L3.4,35.9c-0.2,0.2-0.5,0.4-0.7,0.6c-0.9,0.8-1.5,1.8-2,2.9
	c-0.4,1-0.7,2.1-0.7,3.2C0,44.8,0.8,47,2.4,48.6c1.6,1.7,3.7,2.6,6,2.6c0.1,0,0.2,0,0.2,0c2.2,0,4.3-0.8,5.9-2.4l6.1-5.8L19,41.5
	l1.3-1.3c-1.4-2.4-0.1-8-0.1-8S47.4,11.7,43.2,9.6z"/>
<g>
	<g>
		<path d="M25.7,45.2c-2.4,0-4.6-0.9-6.2-2.6c-1.6-1.7-2.4-3.8-2.4-6.1s1-4.4,2.6-6L49.2,2.4C50.8,0.8,52.9,0,55.1,0
			c2.4,0,4.6,0.9,6.2,2.6c1.6,1.7,2.4,3.8,2.4,6.1s-1,4.4-2.6,6L31.6,42.9C30,44.4,27.9,45.2,25.7,45.2z M55.1,4.2
			c-1.1,0-2.2,0.4-3,1.2L22.6,33.5c-0.8,0.8-1.3,1.9-1.4,3.1c0,1.2,0.4,2.3,1.2,3.1c0.8,0.9,2,1.4,3.2,1.4c1.1,0,2.2-0.4,3-1.2
			l29.4-28.1c0.8-0.8,1.3-1.9,1.4-3.1c0-1.2-0.4-2.3-1.2-3.1C57.4,4.6,56.3,4.2,55.1,4.2z"/>
	</g>
	<g>
		<path d="M25.7,45.1c-2.4,0-4.5-0.9-6.2-2.6c-3.2-3.4-3.1-8.8,0.3-12.1c1.6-1.5,3.7-2.4,5.9-2.4c2.4,0,4.5,0.9,6.2,2.6
			c3.2,3.4,3.1,8.8-0.3,12.1C30,44.2,27.9,45.1,25.7,45.1z M25.7,32.2c-1.1,0-2.2,0.4-3,1.2c-1.7,1.7-1.8,4.4-0.1,6.2
			c0.8,0.9,2,1.3,3.2,1.3c1.1,0,2.2-0.4,3-1.2c1.7-1.7,1.8-4.4,0.1-6.2C28,32.7,26.9,32.2,25.7,32.2z"/>
	</g>
	<g>
		<path d="M56.5,19l-2.9-3c0.8-0.8,1.3-1.9,1.3-3.1c0-1.2-0.4-2.3-1.2-3.1s-1.9-1.3-3.1-1.3c-1.2,0-2.3,0.4-3.1,1.2l-2.9-3
			c1.6-1.6,3.8-2.4,6.1-2.4c2.3,0.1,4.4,1,6,2.6c1.6,1.6,2.4,3.8,2.4,6.1C59.1,15.3,58.1,17.4,56.5,19z"/>
	</g>
	<g>
		<path d="M50.3,24.8l-2.9-3c0.8-0.8,1.3-1.9,1.3-3.1c0-1.2-0.4-2.3-1.2-3.1s-1.9-1.3-3.1-1.3c-1.2,0-2.3,0.4-3.1,1.2l-2.9-3
			c1.6-1.6,3.8-2.4,6.1-2.4c2.3,0.1,4.4,1,6,2.6c1.6,1.6,2.4,3.8,2.4,6.1C52.9,21.1,51.9,23.2,50.3,24.8z"/>
	</g>
	<g>
		<path d="M44.1,31l-2.9-3c0.8-0.8,1.3-1.9,1.3-3.1c0-1.2-0.4-2.3-1.2-3.1c-0.8-0.8-1.9-1.3-3.1-1.3c-1.2,0-2.3,0.4-3.1,1.2l-2.9-3
			c1.6-1.6,3.8-2.4,6.1-2.4c2.3,0.1,4.4,1,6,2.6c1.6,1.6,2.4,3.8,2.4,6.1C46.7,27.3,45.7,29.4,44.1,31z"/>
	</g>
	<g>
		<path d="M37.5,37.2l-2.9-3c1.7-1.7,1.8-4.4,0.2-6.2c-1.7-1.7-4.4-1.8-6.2-0.2l-2.9-3c1.7-1.6,3.8-2.4,6.1-2.3c2.3,0.1,4.4,1,6,2.7
			C41,28.6,40.9,34,37.5,37.2z"/>
	</g>
</g>
<g>
	<g>
		<path d="M36.8,54.8c-2.4,0-4.6-0.9-6.2-2.6c-3.3-3.4-3.1-8.8,0.3-12.1L60.3,12c1.6-1.5,3.7-2.4,5.9-2.4c2.4,0,4.6,0.9,6.2,2.6
			c3.3,3.4,3.1,8.8-0.3,12.1L42.7,52.5C41.1,54,39,54.8,36.8,54.8z M66.2,13.8c-1.1,0-2.2,0.4-3,1.2L33.8,43.1
			c-1.7,1.7-1.8,4.5-0.1,6.2c0.8,0.9,2,1.4,3.2,1.4c1.1,0,2.2-0.4,3-1.2l29.4-28.1c1.7-1.7,1.8-4.5,0.1-6.2
			C68.6,14.3,67.4,13.8,66.2,13.8z"/>
	</g>
	<g>
		<ellipse cx="45.9" cy="32.7" rx="4.7" ry="1.9"/>
	</g>
	<g>
		<path d="M63,30.2c-0.4-0.3-0.8-0.6-1.3-0.9c-2.2-1.4-4.5-1.8-5-0.9c-0.6,0.9,0.8,2.7,3,4.1c0.5,0.3,1,0.5,1.4,0.8
			C61.2,31.9,62,30.7,63,30.2z"/>
	</g>
	<g>
		<ellipse transform="matrix(0.8487 0.5289 -0.5289 0.8487 30.5523 -32.2958)" cx="71.7" cy="37.2" rx="4.7" ry="1.9"/>
	</g>
	<g>
		<ellipse cx="59.2" cy="19.6" rx="4.7" ry="1.9"/>
	</g>
	<g>
		<ellipse transform="matrix(0.8988 0.4384 -0.4384 0.8988 28.8027 -26.9079)" cx="72.7" cy="48.9" rx="4.7" ry="1.9"/>
	</g>
	<g>
		<ellipse transform="matrix(0.8988 0.4384 -0.4384 0.8988 24.3875 -34.048)" cx="85.9" cy="35.8" rx="4.7" ry="1.9"/>
	</g>
	<g>
		<ellipse transform="matrix(0.9397 -0.342 0.342 0.9397 -10.9211 21.76)" cx="56.2" cy="41.8" rx="4.7" ry="1.9"/>
	</g>
	<g>
		<ellipse transform="matrix(0.9397 -0.342 0.342 0.9397 -5.6302 25.5019)" cx="69.5" cy="28.7" rx="4.7" ry="1.9"/>
	</g>
	<g>
		<path d="M36.8,54.8c-2.4,0-4.5-0.9-6.2-2.6c-3.2-3.4-3.1-8.8,0.3-12.1c1.6-1.5,3.7-2.4,5.9-2.4c2.4,0,4.5,0.9,6.2,2.6
			c3.2,3.4,3.1,8.8-0.3,12.1C41.1,53.9,39,54.8,36.8,54.8z M36.8,41.9c-1.1,0-2.2,0.4-3,1.2c-1.7,1.7-1.8,4.4-0.1,6.2
			c0.8,0.9,2,1.3,3.2,1.3c1.1,0,2.2-0.4,3-1.2c1.7-1.7,1.8-4.4,0.1-6.2C39.1,42.4,38,41.9,36.8,41.9z"/>
	</g>
	<g>
		<path d="M68.2,60.1l-0.9,0c-5.3-0.3-7.8-2.8-9.8-4.9c-1.6-1.7-2.9-3-5.6-3.4c-3.6-0.5-5.9,0.4-8.4,1.3c-2.1,0.8-4.2,1.6-7,1.6
			v-4.2c2,0,3.6-0.6,5.5-1.3c2.7-1,5.8-2.2,10.5-1.5c4.1,0.6,6.1,2.7,8,4.6c1.7,1.7,3,3.2,6.1,3.5l26.2-24.6c-2.6-1-4.2-2.6-5.5-4
			c-1.6-1.7-2.9-3-5.6-3.4c-3.4-0.5-4.8,0.3-6.5,1.3c-1.6,0.9-3.4,1.9-6.4,1.9v-4.2c1.9,0,3-0.6,4.4-1.4c2-1.1,4.4-2.5,9.2-1.8
			c4.1,0.6,6.1,2.7,8,4.6c1.8,1.9,3.3,3.4,7,3.6l4.9,0.3L68.2,60.1z"/>
	</g>
</g>
</svg>
