<?xml version="1.0" encoding="utf-8"?>
<!-- Generator: Adobe Illustrator 18.0.0, SVG Export Plug-In . SVG Version: 6.00 Build 0)  -->
<!DOCTYPE svg PUBLIC "-//W3C//DTD SVG 1.1//EN" "http://www.w3.org/Graphics/SVG/1.1/DTD/svg11.dtd">
<svg version="1.1" id="Layer_1" xmlns="http://www.w3.org/2000/svg" xmlns:xlink="http://www.w3.org/1999/xlink" x="0px" y="0px"
	 viewBox="0 0 57.4 86.1" width="100px" height="50px" enable-background="new 0 0 57.4 86.1" xml:space="preserve">
<g>
	<path fill="#E02C34" d="M53.1,40.4V0L30.5,21.6l3.2,3.3l14.8-14.2v29.8c-2.5,0.9-4.3,3.3-4.3,6.2c0,3.6,3,6.6,6.6,6.6
		s6.6-3,6.6-6.6C57.4,43.8,55.6,41.4,53.1,40.4z"/>
	<g>
		<g>
			<g>
				<path d="M9.4,44.4c-2.6,0-5-1-6.8-2.9c-3.6-3.7-3.4-9.7,0.3-13.2l26.2-25c1.8-1.7,4-2.6,6.5-2.6c2.6,0,5,1,6.8,2.9
					c1.7,1.8,2.6,4.2,2.6,6.7s-1.1,4.8-2.9,6.6l-26.2,25C14.1,43.5,11.8,44.4,9.4,44.4z M35.6,5.2c-1.2,0-2.4,0.5-3.3,1.3L6,31.6
					c-1.9,1.8-2,4.9-0.2,6.8c0.9,1,2.1,1.5,3.5,1.5c1.2,0,2.4-0.5,3.3-1.3l26.2-25c0.9-0.9,1.5-2.1,1.5-3.4c0-1.3-0.4-2.5-1.3-3.4
					C38.1,5.7,36.9,5.2,35.6,5.2z"/>
			</g>
			<g>
				<path d="M35.6,19.3c-2.6,0-5-1-6.8-2.9c-3.6-3.7-3.4-9.7,0.3-13.2c1.7-1.7,4-2.6,6.5-2.6c2.6,0,5,1,6.8,2.9
					c3.6,3.7,3.4,9.7-0.3,13.2C40.3,18.4,38,19.3,35.6,19.3z M35.6,5.2c-1.2,0-2.4,0.5-3.3,1.3c-1.9,1.8-2,4.9-0.2,6.8
					c0.9,1,2.1,1.5,3.5,1.5c1.2,0,2.4-0.5,3.3-1.3c1.9-1.8,2-4.9,0.2-6.8C38.1,5.7,36.9,5.2,35.6,5.2z"/>
			</g>
			<g>
				<path d="M12.1,86.1V39.2L44.6,7.9v46.8L12.1,86.1z M16.7,41.2v34.2l23.4-22.5V18.7L16.7,41.2z"/>
			</g>
		</g>
	</g>
</g>
</svg>
