<?xml version="1.0" encoding="utf-8"?>
<!-- Generator: Adobe Illustrator 18.0.0, SVG Export Plug-In . SVG Version: 6.00 Build 0)  -->
<!DOCTYPE svg PUBLIC "-//W3C//DTD SVG 1.1//EN" "http://www.w3.org/Graphics/SVG/1.1/DTD/svg11.dtd">
<svg version="1.1" id="Layer_1" xmlns="http://www.w3.org/2000/svg" xmlns:xlink="http://www.w3.org/1999/xlink" x="0px" y="0px"
	 viewBox="0 0 133.5 120.3" width="34px" height="30px" enable-background="new 0 0 133.5 120.3" xml:space="preserve">
<g>
	<g>
		<g id="path3564">
			<path fill="#E12D34" d="M126.5,13l-8.4-4.5c0,0-12.6-7.9-48.7-7.9h-5.6c-28.5,0-47.6,7.9-47.6,7.9L7,13.3
				c-11.4,5.9-5.4,15.8-5.4,15.8s1.2,2.4,2.7,5.4c1.5,3,5.5,4,9,2.2l19-9.7c3.5-1.8,5.4-4.8,4.3-6.8c-1.1-2-2.2-4.1-2.3-4.8
				c-0.1-0.7,3.8-2.4,7.5-3.5c5.6-1.8,13.9-4.3,22-4.3h6.7c0,0,20.3,0.4,28.8,7.7c0.1,0.1,0.2,0.4,0.3,0.4c0.2,0.1,0.2,0.3,0.1,0.6
				c-0.1,0.1-0.1,0.3-0.2,0.5c-0.5,1.3-1.1,2.5-1.7,3.6c-1,1.9,0.8,4.9,4.2,6.7l17.9,9.5c3.4,1.8,7.5,0.9,9.1-2.2L132,29
				C132,29,137.9,19,126.5,13"/>
		</g>
	</g>
	<g>
		<path d="M111,120.3H23.1c-3.4,0-6.6-2.7-7.8-5.3L6,96.5c-1.1-2.6-1.2-6.5-0.1-9.1l19.6-46.1c1-2.7,4.2-5.5,7.7-5.5h5v-7.2
			c0-4.9,4-9,8.9-9H49c4.9,0,9,4,9,9v7.2h19v-7.2c0-4.9,4-9,8.9-9h1.9c4.9,0,9,4,9,9v7.2h4.3c3.5,0,6.7,2.9,7.7,5.6l19.2,46
			c1,2.7,1,6.7-0.1,9.3l-0.1,0.2l-8.9,18.2C117.5,118,114.1,120.3,111,120.3z M11.5,94.1l9.3,18.4c0.4,0.9,1.6,1.8,2.3,1.8H111
			c0.7,0,1.9-0.9,2.3-1.7l0.1-0.1l8.9-18.1c0.4-1.1,0.5-3.5,0-4.6l-19.2-46c-0.4-0.9-1.6-1.9-2.2-1.9H90.7V28.7c0-1.6-1.3-3-3-3
			h-1.9c-1.6,0-2.9,1.3-2.9,3v13.2h-31V28.7c0-1.6-1.3-3-3-3h-1.9c-1.6,0-2.9,1.3-2.9,3v13.2h-11c-0.6,0-1.8,1-2.2,1.8L11.5,89.7
			C11.1,90.8,11.1,93,11.5,94.1z"/>
	</g>
	<g>
		<path d="M67.1,102.7c-13.5,0-24.5-11-24.5-24.5c0-13.5,11-24.5,24.5-24.5c13.5,0,24.5,11,24.5,24.5
			C91.5,91.7,80.6,102.7,67.1,102.7z M67.1,59.8c-10.2,0-18.5,8.3-18.5,18.5c0,10.2,8.3,18.5,18.5,18.5c10.2,0,18.5-8.3,18.5-18.5
			C85.5,68,77.3,59.8,67.1,59.8z"/>
	</g>
</g>
</svg>
