<?xml version="1.0" encoding="utf-8"?>
<!-- Generator: Adobe Illustrator 18.0.0, SVG Export Plug-In . SVG Version: 6.00 Build 0)  -->
<!DOCTYPE svg PUBLIC "-//W3C//DTD SVG 1.1//EN" "http://www.w3.org/Graphics/SVG/1.1/DTD/svg11.dtd">
<svg version="1.1" id="Layer_1" xmlns="http://www.w3.org/2000/svg" xmlns:xlink="http://www.w3.org/1999/xlink" x="0px" y="0px"
	 viewBox="0 0 119.1 129.7" width="34px" height="30px" enable-background="new 0 0 119.1 129.7" xml:space="preserve">
<path fill="#E12D34" d="M93.2,0C79.5,0,68.3,11.2,68.3,24.9c0,13.7,11.2,24.9,24.9,24.9S118,38.6,118,24.9C118,11.2,106.9,0,93.2,0z
	"/>
<path d="M59.5,10.6C26.7,10.6,0,37.3,0,70.2s26.7,59.6,59.6,59.6s59.6-26.7,59.6-59.6S92.4,10.6,59.5,10.6z M73.5,29.2
	c-6.1-5.1-15-9-26.3-11.7c4-0.9,8.1-1.4,12.3-1.4C74,16.1,88,22,98.2,32.4C86.7,34.2,78.3,33.1,73.5,29.2z M28.9,79.5
	c-0.9,1.3-4.8,4.4-21,6.8C6.2,81,5.4,75.6,5.4,70.2c0-1.1,0-2.3,0.1-3.4c14.1,2.4,22.8,6.6,23.7,11.6C29.2,78.6,29.2,79,28.9,79.5z
	 M33.3,82.7c1.2-1.6,1.6-3.4,1.3-5.3c-1.8-9.6-16.2-14-28.4-16c0.5-3.3,1.4-6.6,2.6-9.7c13.4,5.6,24.6,8.5,33.4,8.5
	c11.5,0,18.6-3.4,26.1-6.9c7.4-3.5,15.1-7.2,28.3-7.4c3.8-0.1,7.5-0.1,11.3-0.2c3.9,7.6,5.9,16.1,5.9,24.6c0,0.6,0,1.3,0,1.9
	c-4.9-0.7-10.2-2.9-15.3-5c-6-2.5-11.7-4.8-16.7-4.8c-12.1,0-17.8,0.8-36.7,19.7C34.4,92.5,21.9,96.4,13.1,97.9
	c-1.2-2.1-2.4-4.2-3.3-6.5C22.7,89.5,30.4,86.6,33.3,82.7z M25.5,28.1c3.8,0.9,7.2,1.7,9.4,2.5c1.4,0.4,2.7,0.8,4,1.2
	c3.6,1.1,7.7,2.3,8.4,3.7c0.1,0.1,0.2,0.5-0.1,1.5c-0.4,1.1-1.4,2.6-5.1,2.6c-4.2,0-10-1.8-15.1-3.4l-0.6-0.2
	c-1.7-0.6-3.9-1.5-6.3-2.7C21.7,31.4,23.6,29.7,25.5,28.1z M52.3,38.8c0.8-2.1,0.7-4.1-0.1-5.8c-1.8-3.5-6.2-4.8-11.8-6.4
	c-1.2-0.4-2.5-0.8-3.8-1.2c-1.4-0.4-3.2-0.9-5.2-1.5c1.8-1.1,3.7-2.1,5.6-3c14.8,2.4,26.2,6.6,33.1,12.4c6.5,5.4,17.4,6.7,32.3,3.8
	c0.8,1,1.5,2,2.2,3.1c-2.7,0-5.5,0.1-8.2,0.1c-14.3,0.3-22.5,4.2-30.5,8c-6.9,3.3-13.4,6.4-23.7,6.4c-8,0-18.8-2.8-31.3-8
	c1.6-3.2,3.4-6.3,5.6-9.1c3.1,1.6,5.9,2.9,8.2,3.6l0.6,0.2c5.1,1.6,11.4,3.7,16.8,3.7C47.4,45,50.9,42.9,52.3,38.8z M67.9,103.8
	C57.5,109.3,49.2,116.6,44,122c-1-0.3-2-0.6-3-1c4.2-9.6,12.1-22.2,26.4-29.5c6.2-3.2,12.2-4.6,19-4.6c4.5,0,8.9,0.7,13.1,1.3
	c3.4,0.5,7,1.1,10.6,1.2c-1.1,2.8-2.4,5.5-3.9,8C93.7,94.9,80.8,97,67.9,103.8z M64.9,86.7c-15.7,8-24.4,21.8-28.9,32.2
	c-7.7-3.7-14.5-9.3-19.6-16.1c9.1-1.8,21.6-6.3,32.2-16.9c18.1-18.1,22.8-18.1,32.9-18.1c3.9,0,9.1,2.1,14.7,4.4
	c5.6,2.3,11.3,4.6,16.9,5.4c-0.3,2.2-0.7,4.4-1.3,6.5c-3.8,0-7.5-0.6-11.5-1.2c-4.4-0.7-8.9-1.3-13.9-1.3
	C78.7,81.5,71.9,83.1,64.9,86.7z M103,102.4c-10.2,13.7-26.3,21.9-43.4,21.9c-3.1,0-6.2-0.3-9.3-0.8c4.7-4.5,11.7-10.4,20.2-14.9
	C81.4,102.8,92.4,100.7,103,102.4z"/>
</svg>
