<?xml version="1.0" encoding="utf-8"?>
<!-- Generator: Adobe Illustrator 18.0.0, SVG Export Plug-In . SVG Version: 6.00 Build 0)  -->
<!DOCTYPE svg PUBLIC "-//W3C//DTD SVG 1.1//EN" "http://www.w3.org/Graphics/SVG/1.1/DTD/svg11.dtd">
<svg version="1.1" id="Layer_1" xmlns="http://www.w3.org/2000/svg" xmlns:xlink="http://www.w3.org/1999/xlink" x="0px" y="0px"
	 viewBox="0 0 121.3 178.3" width="35px" height="50px" enable-background="new 0 0 121.3 178.3" xml:space="preserve">
<path fill="#E12D34" d="M60.7,0C27.2,0,0,27.2,0,60.7c0,13.4,7.9,33.8,24.8,64.1C36,144.9,47,161.7,48.2,163.5l8.3,12.5
	c0.9,1.4,2.5,2.2,4.2,2.2s3.2-0.8,4.2-2.2l8.3-12.5c1.2-1.8,12.2-18.6,23.4-38.8c16.9-30.3,24.8-50.6,24.8-64.1
	C121.3,27.2,94.1,0,60.7,0z M84.5,60.3c0,13.2-10.7,23.9-23.9,23.9c-13.2,0-23.9-10.7-23.9-23.9s10.7-23.9,23.9-23.9
	C73.8,36.4,84.5,47.1,84.5,60.3z"/>
</svg>
