<?xml version="1.0" encoding="utf-8"?>
<!-- Generator: Adobe Illustrator 19.1.1, SVG Export Plug-In . SVG Version: 6.00 Build 0)  -->
<svg version="1.1" id="Layer_1" xmlns="http://www.w3.org/2000/svg" xmlns:xlink="http://www.w3.org/1999/xlink" x="0px" y="0px"
	 viewBox="0 0 106 107.5" style="enable-background:new 0 0 106 107.5;" xml:space="preserve">
<style type="text/css">
	.st0{fill:#FFFFFF;}
</style>
<g>
	<g>
		<path class="st0" d="M100.4,89.9l-14-13.9c-1.3-1.3-3.1-2-4.9-1.9l-6.7-6.7c11.4-15.1,10.3-36.7-3.5-50.5
			c-15.1-15.1-39.5-15.1-54.5,0C1.7,32,1.7,56.4,16.7,71.4c13.8,13.8,35.4,14.9,50.5,3.5l6.7,6.7c-0.1,1.8,0.5,3.6,1.9,4.9
			l13.9,13.9c2.5,2.5,6.6,2.5,9,0l1.5-1.5C102.9,96.4,102.9,92.4,100.4,89.9z M63,63.1c-10.5,10.5-27.4,10.5-37.9,0
			s-10.5-27.4,0-37.9c10.5-10.5,27.4-10.5,37.9,0S73.4,52.6,63,63.1z"/>
		<path class="st0" d="M54.5,40.1h-6.3v-6.3c0-2.3-1.8-4.1-4.1-4.1h0c-2.3,0-4.1,1.8-4.1,4.1v6.3h-6.3c-2.3,0-4.1,1.8-4.1,4.1v0
			c0,2.3,1.8,4.1,4.1,4.1H40v6.3c0,2.3,1.8,4.1,4.1,4.1h0c2.3,0,4.1-1.8,4.1-4.1v-6.3h6.3c2.3,0,4.1-1.8,4.1-4.1v0
			C58.7,42,56.8,40.1,54.5,40.1z"/>
	</g>
</g>
</svg>
