<?xml version="1.0" encoding="utf-8"?>
<!-- Generator: Adobe Illustrator 18.0.0, SVG Export Plug-In . SVG Version: 6.00 Build 0)  -->
<!DOCTYPE svg PUBLIC "-//W3C//DTD SVG 1.1//EN" "http://www.w3.org/Graphics/SVG/1.1/DTD/svg11.dtd">
<svg version="1.1" id="Layer_1" xmlns="http://www.w3.org/2000/svg" xmlns:xlink="http://www.w3.org/1999/xlink" x="0px" y="0px"
	 viewBox="0 0 123.5 124.4" enable-background="new 0 0 123.5 124.4" xml:space="preserve">
<path fill="#E12D34" d="M79.9,21.3c0.1-0.3,0.1-0.6,0.1-0.9c0-2.7-1.7-4-5-4c-1.6,0-2.7,0.3-3.2,0.8c-0.6,0.5-1,1.6-1.2,3.2
	c-1.3-1.8-2.6-3-3.9-3.6c-1.2-0.6-2.9-0.9-5.1-0.9c-5.7,0-10.6,2.9-14.8,8.7c-3.8,5.3-5.7,11-5.7,17c0,4.7,1.2,8.8,3.7,12.4
	c2.8,3.9,6.4,5.9,10.8,5.9c3.8,0,7.5-1.4,11-4.1c1.6,2.7,4.3,4.1,8.1,4.1c7.2,0,13.4-3,18.5-9.1c4.9-5.8,7.3-12.4,7.3-20
	c0-9-3.8-16.5-11.3-22.5c-7-5.6-15-8.3-24-8.3C53.3,0,43.4,3.7,35.4,11.1c-8.2,7.7-12.3,17.4-12.3,29.3c0,12.2,4.2,21.5,12.6,28
	c7.6,5.9,17.5,8.8,29.8,8.8c5.2,0,10.3-0.8,15.3-2.5c5.5-1.8,9.9-4.3,13.5-7.6c1.1-1.1,2.2-2.4,3.3-4c1.3-1.9,1.9-3.4,1.9-4.6
	c0-0.9-0.3-1.7-0.9-2.4c-0.6-0.7-1.4-1-2.2-1c-1.6,0-3,0.6-4.1,1.7c-1.8,2-3.2,3.5-4.1,4.5c-6,5.3-13.5,7.9-22.5,7.9
	c-9.6,0-17.4-2.4-23.1-7.1C36.1,57.2,33,49.7,33,40.1c0-9.4,3-17.2,9-23.4c6-6.3,13.6-9.4,22.7-9.4c7.2,0,13.2,2,17.9,6.1
	c5.1,4.3,7.7,10.1,7.7,17.3c0,3.8-0.6,7.3-1.9,10.5c-1.4,3.6-3.5,6.4-6.3,8.4c-2.1,1.5-3.7,2.2-4.8,2.2c-1.3,0-1.9-0.6-1.9-1.8
	c0-0.5,0.3-2.8,1-6.9L79.9,21.3z M65.2,42.8c-2.3,6.5-4.8,9.7-7.5,9.7c-3.9,0-5.9-2.5-5.9-7.5c0-3.9,1.1-8.3,3.4-13.2
	c2.6-5.8,5.6-8.7,9-8.7c1.4,0,2.4,0.8,3.1,2.3c0.6,1.2,0.8,2.5,0.8,4.1C68.2,32.8,67.2,37.3,65.2,42.8z"/>
<g>
	<path d="M103.6,34.7c2.4,0,4.7,0.7,6.6,1.8L61.8,78.9L13.3,36.5c2-1.1,4.2-1.8,6.6-1.8H103.6 M8.2,41.2L43,71.7L7.8,111.1
		c-1.1-2-1.8-4.3-1.8-6.7V48.7C6,45.9,6.8,43.4,8.2,41.2 M115.4,41.2c1.4,2.2,2.2,4.7,2.2,7.4v55.8c0,2.4-0.7,4.7-1.8,6.7L80.5,71.7
		L115.4,41.2 M48.3,76.3l11.2,9.8c0.7,0.6,1.5,0.9,2.3,0.9c0.8,0,1.6-0.3,2.3-0.9l11.2-9.8l35.7,39.9c-2.1,1.3-4.6,2.1-7.4,2.1H19.9
		c-2.7,0-5.2-0.8-7.4-2.1L48.3,76.3 M103.6,28.7H19.9c-3.3,0-6.5,0.8-9.5,2.5c-1.6,0.9-2.6,2.4-3,4.1c0,0-0.1,0-0.1,0
		C5.6,35.6,4,36.6,3.1,38C1.1,41.3,0,44.9,0,48.7v55.8c0,3.3,0.9,6.6,2.5,9.6c0.9,1.6,2.4,2.6,4.1,3c0,0,0,0,0,0
		c0.2,1.8,1.3,3.3,2.8,4.2c3.2,2,6.8,3.1,10.5,3.1h83.7c3.7,0,7.3-1.1,10.5-3.1c1.5-0.9,2.5-2.5,2.8-4.2c0,0,0,0,0,0
		c1.7-0.3,3.2-1.4,4.1-3c1.7-3,2.5-6.3,2.5-9.6V48.7c0-3.7-1.1-7.4-3.1-10.6c-0.9-1.5-2.5-2.5-4.2-2.7c0,0-0.1,0-0.1,0
		c-0.3-1.7-1.4-3.2-3-4.1C110.1,29.5,106.9,28.7,103.6,28.7L103.6,28.7z"/>
</g>
</svg>
