<?xml version="1.0" encoding="utf-8"?>
<!-- Generator: Adobe Illustrator 18.0.0, SVG Export Plug-In . SVG Version: 6.00 Build 0)  -->
<!DOCTYPE svg PUBLIC "-//W3C//DTD SVG 1.1//EN" "http://www.w3.org/Graphics/SVG/1.1/DTD/svg11.dtd">
<svg version="1.1" id="Layer_1" xmlns="http://www.w3.org/2000/svg" xmlns:xlink="http://www.w3.org/1999/xlink" x="0px" y="0px"
	 viewBox="0 0 41.8 41.9" enable-background="new 0 0 41.8 41.9" xml:space="preserve">
<polygon fill="#FFFFFF" points="16.5,20.9 18.3,19.2 18.3,19.2 23.5,13.9 25.2,15.6 20,20.9 25.2,26.1 23.5,27.8 18.3,22.6 
	18.3,22.6 16.5,20.9 16.5,20.9 "/>
<polygon fill="#FFFFFF" points="2.4,32.1 2.4,39.5 39.3,39.5 39.3,32.1 41.8,32.1 41.8,39.5 41.8,41.9 39.3,41.9 2.4,41.9 0,41.9 
	0,39.5 0,32.1 "/>
<polygon fill="#FFFFFF" points="39.3,9.8 39.3,2.4 2.4,2.4 2.4,9.8 0,9.8 0,2.4 0,0 2.4,0 39.3,0 41.8,0 41.8,2.4 41.8,9.8 "/>
</svg>
